<svg width="488" height="180" viewBox="0 0 488 180" fill="none" xmlns="http://www.w3.org/2000/svg">
<path d="M202.057 106.592L197.252 98.206C197.595 100.091 197.508 101.756 197.938 103.662C198.912 107.991 201.814 112.225 201.759 116.932L202.355 117.082C203.966 114.04 205.034 110.715 206.047 107.425C207.343 103.224 208.092 97.6517 210.235 93.9215C212.806 89.4483 214.815 86.569 216.718 81.5056C217.533 79.3364 217.677 76.7897 219.193 74.983C214.292 74.0842 208.245 79.6001 205.064 73.3382C206.721 74.0423 208.029 74.9651 209.941 74.7613C210.984 74.6505 213.272 73.8355 214.289 73.3861C215.305 72.9367 221.183 69.7938 221.61 69.2964C222.362 68.4185 223.261 65.9228 223.955 64.7423C227.308 59.0497 230.997 53.4709 233.03 47.1191C230.904 47.0622 229.013 48.2187 226.857 48.1858C221.962 48.1079 215.29 41.807 212.271 49.5041C211.823 50.6456 211.958 51.9878 211.814 52.3743C211.634 52.8477 210.416 53.8724 210.028 55.0589C208.952 58.3426 210.816 62.1087 207.773 64.3438C209.018 61.6054 207.911 58.8759 207.773 56.1015C207.614 52.8957 207.923 49.1475 207.397 45.9896C207.057 43.9552 204.255 39.9914 203.206 37.8821C202.075 35.6081 201.787 32.9355 199.652 31.0899C203.076 30.6225 205.356 37.4177 208.203 37.0792C208.609 37.0312 208.891 36.5578 209.288 36.6148C209.974 36.7106 210.702 37.6394 211.297 37.9091C213.381 38.8439 215.687 37.9091 217.834 37.981C220.609 38.0709 223.044 39.4431 225.383 39.7517C231.048 40.4977 241.064 37.1391 245.496 33.4778C247.014 32.2254 247.841 30.5746 249.257 29.2892C248.208 36.0814 243.277 41.4535 240.697 47.5716C239.515 50.3729 238.598 54.6424 237.386 57.1621C237.308 57.3239 235.237 59.1995 234.837 59.7088C232.055 63.2652 228.763 68.5174 227.617 72.8918C227.575 73.0535 227.53 73.3801 227.762 73.3322C231.649 71.184 236.46 70.9383 240.092 68.2418L240.24 68.6882C236.111 72.4423 230.411 75.2048 226.267 78.7372C222.978 81.5415 223.237 82.3715 221.914 86.0837C221.583 87.0095 220.732 88.127 220.534 88.903C220.293 89.8468 220.534 90.7516 220.26 91.6265C220.04 92.3366 219.093 92.9448 218.639 93.6069C216.09 97.3431 213.934 102.155 213.179 106.589C213.988 106.31 214.878 106.062 215.738 105.996C224.388 105.31 234.677 111.032 242.197 104.198C246.966 99.8658 245.757 95.6832 247.245 90.3501C247.333 90.0415 247.318 89.4423 247.751 89.5142C248.081 93.6399 247.483 97.3371 246.855 101.352C246.277 105.034 246.431 103.584 244.807 106.502C243.472 108.902 242.979 111.569 240.234 112.731C235.402 114.78 232.792 111.173 227.909 111.988C228.817 113.75 230.576 114.846 231.809 116.338C237.792 123.577 241.43 133.695 242.338 142.998C242.666 146.369 242.847 149.712 242.038 153.029L240.751 143.681C239.599 136.254 235.002 130.166 231.042 123.994C226.746 117.3 217.419 108.947 208.994 113.957C201.946 118.145 204.944 126.906 205.659 133.407C205.972 136.26 205.909 139.166 206.345 142.012C207.199 147.558 210.386 152.022 211.068 157.379C211.637 161.853 211.492 167.569 210.723 172.006C210.65 172.423 210.638 173.633 210.172 173.702C210.142 168.108 209.797 161.787 208.519 156.322C207.74 152.99 206.062 150.216 204.905 147.04L197.538 115.281L196.128 121.21C195.009 126.346 195.493 130.759 197.24 135.654C196.047 134.89 195.205 133.054 194.694 131.753C191.927 124.71 194.501 118.22 193.948 110.924C193.738 108.138 192.655 105.043 192.439 102.242C191.994 96.4802 194.101 93.7477 190.983 88.112C188.169 83.0276 183.984 79.657 178.908 76.9275C178.508 80.9243 179.777 84.7893 179.519 88.7742C179.404 90.5299 178.737 92.4294 178.611 94.1612C178.229 99.3715 180.198 102.667 181.527 107.425C182.468 110.796 182.766 114.334 184.32 117.525L182.156 115.188L178.608 106.892C177.435 114.625 177.188 123.059 178.863 130.75C179.786 134.989 183.349 145.949 186.112 148.993C187.673 150.713 189.561 151.495 191.233 153.026C185.845 152.316 182.552 147.912 180.358 143.342C174.933 132.062 172.161 122.999 172.278 110.322C172.318 106.017 172.083 105.07 171.473 100.962C170.601 95.108 172.531 90.443 172.302 84.8523C172.152 81.167 170.297 77.5088 170.474 73.7666C170.598 71.187 171.993 68.5504 172.254 65.9557C172.898 59.577 172.564 49.7048 171.987 43.2272C171.761 40.6925 170.709 38.2237 171.094 35.5841L174.101 42.1756C174.518 42.625 174.648 42.1456 174.699 41.7321C175.673 34.083 169.476 32.3573 168.388 25.6969C169.915 27.7642 171.479 29.8975 173.493 31.5423C179.582 36.5159 187.565 36.3271 194.45 39.7217C196.702 40.8333 201.585 46.1903 202.511 48.4674C204.496 53.3511 203.792 60.5448 200.412 64.6464C199.998 65.1498 196.194 68.9998 195.917 69.1556C195.13 69.596 194.576 69.3174 193.867 69.5091C192.802 69.7998 189.11 73.5869 189.137 74.6864C190.114 76.9665 193.175 77.7485 194.546 79.4742C195.262 80.3731 196.308 82.6891 196.798 83.8216C199.922 91.0872 200.497 98.919 202.063 106.586L202.057 106.592ZM191.714 47.4038C187.919 43.7036 179.02 39.0296 179.795 48.3356C179.882 49.3902 180.442 50.0284 180.424 50.9961C180.358 54.9959 179.017 59.8497 179.305 64.1611C179.374 65.2187 180.135 66.8006 180.135 68.092C180.135 69.4792 179.293 70.9742 179.513 72.4363C180.553 71.9 181.741 71.8281 182.814 71.3847C184.874 70.5308 192.541 64.5835 193.774 62.8308C195.926 59.7718 195.006 54.5765 194.167 51.092C193.801 49.573 192.802 48.4644 191.714 47.4038Z" fill="#887E69"/>
<path d="M378.878 38.2596C383.472 40.3239 388.749 35.9316 390.847 32.1056C393.511 27.2429 395.066 20.8402 396.599 15.5161C397.15 15.4471 396.861 16.1542 396.816 16.4808C396.031 22.3622 393.806 28.5462 392.047 34.2028L389.981 37.3847C390.321 37.6843 392.925 36.2971 393.454 36.2043C394.371 36.0425 395.43 36.2911 396.407 36.1503C400.246 35.602 405.902 31.1618 408.927 28.5522C412.144 25.7748 415.428 22.1674 418.395 19.1114C418.618 19.0635 418.597 19.417 418.539 19.5548C418.251 20.2559 416.435 22.4101 415.827 23.1472C413.067 26.4938 409.661 30.0472 406.519 33.0463C404.417 35.0537 401.566 36.5069 400.201 39.3352L401.563 39.1944L405.31 37.2349C403.882 39.1195 402.3 40.9321 401.245 43.0714C398.908 47.7962 398.521 53.1803 394.335 56.8595C393.884 56.6258 394.422 56.1374 394.537 55.8618C395.048 54.6573 395.935 53.4529 396.272 52.1975C397.336 48.2576 396.518 45.0308 392.381 43.8264C389.44 42.9695 390 43.6706 387.723 44.5784C385.207 45.5851 382.868 45.7349 381.941 48.7041C381.223 51.0111 381.644 54.133 381.226 56.6797C380.97 58.2317 380.207 59.8256 380.056 61.5065C379.762 64.8082 380.213 68.2358 379.452 71.5375C381.956 68.9998 383.096 65.1917 384.419 61.9559C384.506 61.7402 384.542 61.0241 384.864 61.5065C384.193 64.1071 383.658 66.8216 382.84 69.3773C381.536 73.455 378.192 79.5461 378.406 83.6807C378.493 85.3556 379.419 87.354 379.461 89.3524C379.527 92.5403 378.315 95.809 378.55 98.952C378.667 100.537 379.395 102.062 379.662 103.533C380.414 107.671 379.262 113.81 378.448 118.037C378.036 120.173 376.932 122.858 376.743 124.728C376.081 131.253 378.427 136.943 377.955 143.312C377.69 146.851 375.955 150.503 375.898 154.087C375.856 156.801 376.848 159.836 377.034 162.479C377.419 167.893 375.678 173.388 375.687 178.804C375.02 173.172 376.289 167.521 375.501 161.909C375.248 160.103 374.479 158.284 374.322 156.492C373.947 152.127 375.333 147.606 375.369 143.298C375.42 136.982 372.242 132.613 373.207 125.995C374.364 118.055 376.226 115.014 374.497 106.286C374.04 103.976 372.843 102.251 373.429 99.707C372.924 99.7909 372.891 100.291 372.747 100.672C371.749 103.296 371.093 106.967 370.441 109.765C370.248 110.589 370.131 110.58 370.113 109.741C370.808 105.96 370.786 101.846 371.364 98.0981C371.676 96.0667 372.59 93.9904 372.795 92.0339C372.99 90.1913 372.675 88.2109 372.834 86.3802C373.195 82.2786 374.307 78.2398 374.031 74.0962C373.95 72.8917 373.417 71.3667 373.408 70.1952C373.396 68.7001 374.001 66.9744 374.049 65.4194C374.127 62.9266 373.159 60.7305 373.123 58.4954C373.081 55.7839 373.514 53.4829 372.999 50.5557C372.191 45.9416 368.122 46.2442 364.559 44.9649C363.892 45.0128 362.602 47.7333 362.392 48.4074C360.903 53.1773 362.088 56.8565 361.7 61.5005C361.478 64.182 359.989 67.5347 359.89 69.9106C359.779 72.5741 360.708 75.5253 360.5 78.5814C360.293 81.6374 359.03 84.3998 358.735 87.309C358.311 91.5485 358.528 96.1805 358.095 100.453C358.044 100.944 357.554 104.504 357.346 104.504L356.88 85.1608C358.354 79.3633 356.655 73.5718 356.58 67.8133C356.535 64.221 357.467 60.2661 357.205 56.7007C357.082 55.0438 356.294 53.1833 356.267 51.6163C356.252 50.6395 357.226 46.6727 357.049 46.3581C356.071 45.5551 354.409 45.66 353.206 45.8488C352.244 45.9986 346.173 48.6531 345.485 49.2404C343.512 50.9212 342.147 55.8108 341.856 58.3575L341.564 55.8168C341.537 53.4469 345.253 44.7252 341.949 43.7425C338.852 42.8197 338.284 45.8997 337.736 48.1078C336.955 51.2508 337.105 56.6498 337.355 60.0024C337.691 64.5206 339.664 68.814 340.067 73.3321C343.395 72.7898 344.892 69.0507 347.268 67.0493C346.988 68.1369 346.351 69.2514 345.818 70.2461C344.829 72.0977 341.862 75.9597 341.393 77.5207C340.43 80.7176 342.475 84.1661 342.755 87.2761C343.103 91.1471 341.94 95.4016 342.532 99.1827C342.851 101.208 344.529 106.289 345.25 108.459C347.075 113.933 350.073 119.044 350.575 125.03C350.557 125.917 350.53 125.782 350.244 125.06C348.903 121.663 347.244 116.695 345.413 113.693C345.175 113.303 344.664 112.494 344.267 112.291C344.141 113.157 344.574 113.933 344.544 114.786C344.348 120.132 342.277 127.322 342.8 132.476C343.034 134.806 344.291 137.653 344.276 139.987C344.258 142.647 343.064 146.443 342.767 149.293C342.568 151.207 342.911 153.218 342.46 155.129L341.85 149.601C341.693 146.003 342.469 142.408 342.159 138.806C341.835 135.037 339.643 131.403 339.45 127.727C339.273 124.377 340.62 120.773 340.548 117.579C340.491 115.035 339.375 112.414 338.948 109.948C338.287 106.134 337.971 102.23 337.279 98.4276C337.066 97.2472 336.311 95.9978 336.185 94.7244C336.004 92.8818 336.645 91.0452 336.449 89.0678C336.221 86.7368 334.793 84.22 334.946 81.7273C334.402 82.1168 334.477 82.3894 333.665 82.683C330.247 83.9234 330.217 84.0942 327.222 85.8619C325.352 86.9675 323.496 87.6596 321.41 88.2258C320.541 90.8355 320.778 93.8436 320.072 96.4112C319.516 98.4336 318.394 99.9586 318.147 102.284C317.907 104.585 318.37 107.009 317.976 109.304C317.441 112.437 314.819 117.013 313.896 120.518C312.747 124.877 313.009 127.02 313.012 131.295C313.015 135.571 312.931 139.394 312.693 143.441L310.598 128.907C310.715 125.456 310.534 121.558 310.925 118.157C311.178 115.955 312.489 113.639 312.693 111.23C312.85 109.387 312.366 107.79 312.387 106.158C312.426 102.892 313.833 99.1647 314.167 95.9199C314.281 94.7903 314.167 93.6398 314.2 92.5103L312.155 95.1139L308.183 102.841C308.998 98.5145 310.429 93.481 312.753 89.7149C313.49 88.5225 315.267 86.9315 315.577 85.6372C315.989 83.9264 315.477 81.8981 315.775 80.1423C316.154 77.9042 318.202 74.207 318.863 71.5345C319.425 69.2724 319.522 66.7856 320.048 64.6254C320.613 62.3064 322.477 59.8226 322.847 57.5276C323.502 53.4529 323.382 49.6748 325.069 45.66C327.592 39.6468 333.623 35.635 334.351 28.9896C334.898 29.1814 334.688 30.7693 334.642 31.2307C334.285 35.0208 333.07 37.4267 333.449 41.7171C333.488 42.1515 334.218 46.0315 334.642 45.4682C334.504 42.4601 338.392 41.2138 339.303 38.8738C339.832 37.5076 339.625 36.2941 339.892 34.9669C340.253 33.1812 341.396 31.7101 341.558 29.7386C341.753 27.3897 340.845 25.607 340.665 23.4438C340.4 20.2649 341.356 17.3946 341.868 14.3116C342.406 14.2457 342.159 14.9827 342.129 15.3183C341.961 17.2388 341.393 19.0874 341.567 21.0469C341.789 23.5457 343.112 26.6227 343.365 29.1394C343.618 31.6561 342.755 34.5084 343.049 36.9443C343.209 38.2476 343.825 37.8461 344.553 38.4424C345.608 39.3052 346.687 40.6445 348.098 40.9022C349.246 41.1119 353.341 40.9591 354.192 40.225C354.715 39.7726 354.322 39.8296 353.991 39.524C351.943 37.6454 350.286 36.3151 350.283 33.1842L352.112 35.1047C355.106 37.5225 356.297 36.9083 359.674 37.154C361.628 37.2948 362.38 38.3435 364.511 37.0282C367.849 34.9699 367.723 30.4996 367.756 27.0781L368.919 22.0985C369.19 23.7614 368.631 25.4512 368.61 27.0241C368.564 30.2629 369.181 32.0127 368.306 35.4133C368.144 36.0395 367.076 38.1817 367.121 38.4184C367.26 39.1225 371.192 38.9727 371.947 38.742C375.441 37.6783 373.535 29.8345 373.724 27.0301C373.913 24.2258 375.077 21.8558 374.933 18.9526C374.704 14.3685 374.106 12.6877 375.997 8.01977L379.145 2.02454C378.412 5.69778 376.692 8.43923 376.43 12.3462C376.193 15.9026 377.043 17.9189 377.341 21.0499C377.543 23.1562 377.155 25.5201 377.347 27.6354C377.672 31.1528 380.014 34.5025 378.866 38.2536L378.878 38.2596ZM323.232 80.5228C323.632 80.8284 326.106 79.3364 326.771 79.1087C328.004 78.6862 333.731 77.6525 334.026 76.7297C334.225 76.1095 333.301 74.3838 333.187 73.452C333.013 72.0079 333.244 70.5368 333.07 69.0747C332.772 66.5789 331.35 63.9094 331.082 61.4675C330.932 60.1043 331.203 58.6302 331.046 57.3089C330.776 55.0558 330.153 52.8147 329.844 50.5646L329.107 55.9666C326.924 60.8114 326.834 65.0958 326.163 70.1113C325.905 72.0408 324.735 73.413 324.275 75.1208C323.806 76.8556 324.011 78.842 323.235 80.5228H323.232Z" fill="#887E69"/>
<path d="M120.578 17.7572C121.173 11.6211 124.619 5.20047 128.687 0.670336C128.804 0.541502 129.433 -0.255465 129.601 0.0830966C126.065 4.78401 124.706 10.171 124.189 15.9625C123.563 22.9914 124.76 28.1507 125.085 34.8381C125.352 40.3929 123.422 43.4968 122.989 48.3236C122.839 50.0044 122.989 51.9908 122.971 53.7256C122.908 61.0122 122.045 68.2628 121.768 75.5733C121.582 80.442 123.572 83.9205 123.897 88.4566C124.222 92.9927 122.779 96.7798 122.67 101.04C122.607 103.497 123.296 106.161 122.986 108.692C126.802 105.591 131.204 103.126 136.213 102.7V92.5134C134.322 94.8324 133.308 98.0322 132.602 100.899C132.076 100.968 132.322 100.222 132.307 99.8568C132.024 93.1006 135.413 86.5211 136.189 80.3521C136.513 77.7635 136.035 74.6655 136.216 71.9899C136.535 67.2561 138.275 62.6181 138.615 57.9022C138.976 52.8807 137.818 47.6105 139.526 42.7778H140.122C139.319 45.3455 140.272 48.1828 140.687 50.7534C140.891 52.0118 140.482 53.3211 141.475 54.4596L145.302 46.8885C145.251 43.6317 147.873 43.0355 149.884 41.2677C152.75 38.754 153.962 35.5721 156.367 32.7468C157.131 31.8479 161.475 27.4287 162.224 27.198C162.447 27.15 162.429 27.5126 162.371 27.6414C161.996 28.4623 160.414 30.2121 159.804 31.3776C158.156 34.5325 157.128 38.014 155.895 41.2647C155.621 41.9838 154.581 42.9006 154.256 43.6736C155.411 44.5365 158.517 40.6356 159.365 39.9285C161.289 38.3136 164.001 36.8964 165.507 34.9639C166.259 33.9962 166.563 32.7528 167.486 31.9948C167.287 35.5511 163.755 38.2147 162.822 41.2767C161.89 44.3388 161.277 51.5474 161.863 54.8252C162.257 57.0333 163.746 60.1882 163.896 62.0878C164.034 63.8585 163.37 65.5333 163.282 67.2021C163.162 69.4522 162.946 72.8348 163.003 74.9591C163.033 76.0047 163.863 77.2601 163.896 78.2938C163.935 79.5551 163.319 81.4187 163.264 82.767C163.066 87.8843 163.559 93.0197 163.55 98.0592C163.538 104.201 163.866 109.316 164.178 115.44C164.714 125.95 161.006 134.351 163.063 145.314C163.541 147.858 164.335 150.276 165.08 152.738C163.168 150.108 162.086 145.739 161.376 142.501C159.299 133 161.878 124.03 159.707 115.101C158.98 112.105 157.482 109.295 157.254 106.161L158.165 87.1233C155.733 89.9277 155.3 94.0474 155.158 97.6068C154.719 97.6607 154.62 96.8218 154.587 96.5341C153.784 89.1187 157.275 81.3918 155.011 73.9404C151.962 76.5111 145.023 78.9889 143.408 82.752C143.047 83.5909 143.273 84.2351 143.059 84.8013C142.665 85.847 141.998 86.638 141.706 87.9473C140.657 92.6422 141.46 102.164 145.236 105.552C147.831 107.883 149.881 109.663 151.977 112.617C153.339 114.538 154.446 116.635 155.161 118.879C154.377 119.071 154.635 118.625 154.386 118.316C152.735 116.255 151.051 113.516 148.649 112.042C147.774 111.506 141.73 109.789 141.33 110.193L140.669 118.672C137.343 122.07 137.695 126.882 137.725 131.313L139.078 139.852C136.91 136.871 135.741 131.085 135.623 127.418C135.551 125.168 136.162 122.99 136.234 120.842C136.342 117.594 136.008 114.31 136.378 111.074C132.217 108.135 124.183 113.36 122.457 117.3C119.035 125.102 123.999 129.671 124.508 136.997C124.983 143.858 123.47 145.614 121.576 151.477C120.003 156.346 120.13 162.47 120.274 167.581C120.319 169.16 120.662 170.607 120.587 172.366C120.572 172.731 120.815 173.48 120.289 173.412C120.238 168.51 118.705 163.399 118.467 158.596C118.178 152.711 120.803 148.127 120.28 141.808C119.739 135.262 115.572 130.007 115.16 123.541C114.697 116.249 117.791 109.196 117.273 101.96C117.132 99.9707 116.579 98.4547 116.663 96.2465C116.72 94.7874 117.288 93.1306 117.303 91.7673C117.321 90.0715 116.302 86.3653 115.941 84.4118C115.454 81.7663 115.448 80.8465 115.779 77.9912C116.164 74.6415 116.958 71.3128 117.276 67.9512C115.905 69.1137 115.535 71.0522 114.883 72.6041C114.814 72.7689 114.555 73.6108 114.267 73.1884C114.913 70.9802 114.39 68.6133 114.606 66.3363C114.823 64.0592 115.866 61.4286 116.068 59.1036C116.332 56.0776 115.52 53.0814 115.776 50.1243C115.998 47.5506 117.255 45.0159 117.736 42.4902C118.813 36.8335 117.923 28.9867 117.228 23.2011C116.831 19.9024 115.824 18.5751 116.888 14.9798C116.991 14.6322 117.135 13.7124 117.571 13.7184L117.577 16.2621L120.581 24.5045C120.734 22.3293 120.373 19.9084 120.581 17.7632L120.578 17.7572ZM143.128 73.6318C143.642 73.6618 144.148 73.6618 144.647 73.5C146.015 73.0476 152.603 69.0477 153.511 67.9512C157.182 63.5109 153.739 54.3937 153.953 49.0696C151.995 50.9362 149.632 52.65 148.489 55.1577C145.97 60.6946 145.543 67.9512 143.131 73.6348L143.128 73.6318Z" fill="#887E69"/>
<path d="M468.463 39.479L469.059 39.2963C469.774 35.7339 472.784 33.349 474.768 30.4937C472.766 34.913 470.358 39.0596 472.132 44.0601C473.385 47.5895 476.155 49.5909 478.202 52.3923C481.173 56.4491 480.226 59.8167 480.785 64.4996C481.38 69.4672 482.469 74.3718 482.89 79.3334C485.761 76.1276 486.432 70.7076 487.661 66.558C487.89 65.788 488.016 65.773 487.998 66.5939C487.165 71.193 487.258 75.5044 485.346 79.8368C484.856 80.9423 484.101 81.8532 483.644 82.9348C481.964 86.9106 482.661 91.264 481.651 95.3297C481.17 97.2652 480.123 99.2816 479.6 101.376C478.536 105.639 478.199 110.092 476.566 114.232C476.804 114.7 477.102 114.235 477.336 114.1C479.474 112.854 481.368 109.987 483.338 108.396L483.485 108.839L475.845 118.304C474.011 122.564 469.807 126.148 467.6 129.863C466.506 131.706 462.964 140.967 462.747 143.004C462.047 149.529 461.77 156.166 460.117 162.554L457.633 180C457.341 177.549 458.141 175.059 458.243 172.674C458.376 169.55 457.979 166.155 458.234 163.078C458.49 160.001 459.47 157.526 459.145 154.072C458.992 152.448 458.135 150.836 457.961 149.26C457.57 145.721 458.171 142.069 456.65 138.582C455.925 136.922 453.995 135.166 453.354 133.476C452.897 132.272 452.897 130.78 452.504 129.53C451.55 126.51 448.757 125.048 447.654 122.379C446.803 120.323 447.001 118.031 446.268 115.97C445.498 113.804 443.426 112.201 442.356 110.28C440.567 107.071 441.303 103.749 440.711 100.234C440.386 98.3048 439.397 96.0847 439.292 94.1522C439.109 90.8745 440.179 87.2252 439.902 83.6628C439.731 81.4577 438.504 78.8061 438.685 76.7837C439.118 71.8881 441.983 66.8935 442.515 61.7222C442.786 59.0797 441.986 56.8595 442.675 54.0911C443.27 51.6882 445.188 50.346 446.268 48.3835C447.681 45.8128 447.203 44.2159 449.84 42.0557C456.1 36.9234 463.075 35.9286 463.659 26.1643C464.067 19.3331 461.458 17.7272 460.059 12.0466C459.377 9.27517 459.16 6.36894 458.839 3.53162L461.007 11.4024C464.633 18.1137 467.191 23.3989 467.276 31.2397C467.294 32.9954 466.68 34.7452 466.972 36.6178C467.158 37.8162 468.13 38.4124 468.463 39.482V39.479ZM461.238 132.658C461.963 129.572 464.57 127.748 465.805 124.773C467.961 119.589 470.46 112.797 471.428 107.305C471.675 105.909 471.512 104.135 471.84 102.622C472.276 100.609 473.512 98.5445 474.083 96.4682C475.457 91.4797 475.283 83.2044 474.768 77.9792C474.588 76.1425 473.704 74.243 473.557 72.2955C473.184 67.313 474.357 62.1956 471.819 57.249C471.341 56.3202 468.487 51.4755 467.988 50.8793C467.053 49.7647 464.982 48.9438 464.107 47.8562C463.292 46.8435 462.546 44.6503 462.137 43.374C460.071 44.8241 457.564 45.2256 455.97 47.26C454.626 48.9767 450.603 56.5329 450.185 58.5733C449.906 59.9455 450.026 61.8001 449.737 63.2203C448.796 67.8043 447.152 72.9876 446.797 77.6676C446.478 81.8951 446.929 86.2305 447.413 90.4101L448.965 87.9173L452.519 78.4286C451.848 87.2761 447.87 96.5611 448.947 105.508C449.232 107.889 451.448 111.344 452.452 113.699C453.664 116.539 455.186 119.526 456.277 122.172C456.963 123.835 457.149 125.722 457.88 127.466C458.655 129.321 459.963 131.106 461.238 132.655V132.658Z" fill="#887E69"/>
<path d="M37.8894 129.063C37.4294 129.135 37.5346 128.503 37.4474 128.164C36.5153 124.527 35.5742 117.336 33.3312 114.586C33.0095 114.193 32.817 113.669 32.1796 113.789C34.1731 120 31.915 126.358 33.2801 132.613C34.3174 137.362 36.8701 141.608 38.4186 146.069C39.6453 149.601 40.376 154.524 39.9701 158.251C39.94 158.542 39.8378 159.378 39.3988 159.324C39.952 157.035 39.474 154.401 38.9568 152.124C37.3031 144.862 31.7497 139.157 29.9155 131.771C28.2799 125.189 28.5926 118.72 27.6334 112.174C26.6622 105.546 22.8557 103.89 21.3403 98.97C20.0564 94.7964 20.8352 89.4124 17.7533 85.7661C16.4604 84.2351 14.4819 83.0486 13.0838 81.4307C11.9022 80.0675 11.1204 78.4016 10.0169 77.0114C9.82751 76.7717 10.026 76.4601 9.3314 76.6309C9.2893 77.6107 8.82025 78.5065 8.73005 79.4802C8.02347 87.2042 8.64586 94.0953 9.3314 101.646C9.68319 105.522 8.32114 107.533 8.11367 110.921C7.8581 115.089 8.8834 120.135 9.04275 124.404C9.36748 133.183 8.73005 140.403 7.83104 148.987C7.42513 152.855 7.47925 157.092 7.83104 160.966C8.32114 166.359 9.85457 171.692 9.63207 177.151C9.61704 177.516 9.85758 178.265 9.33441 178.196C8.258 169.28 4.99869 161.077 5.41061 151.968C5.54892 148.906 6.21341 145.76 6.32165 142.689C6.5652 135.729 4.99268 128.79 4.52062 121.872C3.75089 121.749 4.05156 121.935 3.89221 122.292C2.33772 125.761 1.57401 134.067 1.82056 137.896C1.88972 138.98 2.27158 140.248 2.4159 141.344C1.36655 140.58 1.01175 138.543 0.90351 137.311C0.428445 131.783 1.61009 126.313 1.82958 120.836C2.02502 115.919 1.36354 111.038 1.50486 106.131C1.64617 101.223 2.1032 97.5948 1.4808 92.6991C1.23124 90.7397 -0.0496263 87.3181 0.00148827 85.7811C0.0435826 84.5047 1.32145 82.3056 1.73337 80.8944C3.05032 76.3972 3.20366 71.8491 3.03228 67.1842C2.97515 65.6202 2.37681 63.6457 2.39185 62.1057C2.41891 59.5081 3.85613 56.476 3.9313 53.7256C4.00346 51.2268 3.07438 48.3146 3.31792 45.9207C3.51035 44.0362 4.90247 41.834 5.11896 39.6289C5.582 34.9459 3.87417 30.2091 3.6216 25.5471C3.40211 21.5263 3.8892 15.5101 4.5597 11.5073C4.61984 11.1538 4.64991 10.1141 5.11896 10.1201C5.8947 17.0921 5.86463 24.2768 8.04451 31.027C8.57671 32.6779 9.99889 34.8261 10.2094 36.3601C10.8859 41.2887 9.62005 46.0106 9.32238 50.7025C9.03975 55.1308 9.46671 61.4286 9.63508 65.9977C9.64711 66.3602 9.40957 67.1123 9.93275 67.0404C11.824 63.5499 13.0928 59.7538 14.8337 56.1914C16.9535 51.862 19.9723 47.4128 21.8845 43.1433C22.97 40.7165 22.1521 39.4101 24.0765 36.9383C26.6051 33.6906 27.8108 34.089 29.0947 29.3552C29.4194 28.1567 29.6359 25.4872 29.9366 24.8011C30.141 24.3337 32.9463 22.2124 33.68 21.3406C35.9591 18.6381 37.2099 14.9408 39.5822 12.2413L45.713 5.32031C45.7971 6.06035 45.3762 6.60565 45.0545 7.20787C41.6959 13.4638 36.4973 18.9736 33.9325 26.0864C33.1628 28.2196 33.0486 30.6735 32.3239 32.8726C30.7965 37.4926 27.2456 41.0191 25.4205 45.1687C23.8058 48.8389 24.2057 53.6207 21.2231 56.8655C20.7269 57.4048 19.9692 57.7374 19.398 58.3426C16.6258 61.2728 15.7628 66.4232 13.0417 69.5901C12.9726 70.6177 21.0427 78.5604 22.2544 80.0825C25.4896 84.1392 24.9634 87.0484 25.9527 91.6774C27.0381 96.7559 30.571 100.225 32.5374 104.89C33.9085 108.141 35.493 113.109 36.4793 116.542C37.6429 120.596 37.9977 124.841 37.8954 129.06L37.8894 129.063Z" fill="#887E69"/>
<path d="M429.674 46.9694C430.197 47.0503 429.914 46.6128 429.887 46.3132C429.695 44.3628 429.331 42.4003 429.157 40.4438C429.127 40.1113 428.802 39.4252 429.367 39.4851C430.537 42.1906 431.054 45.2406 432.145 47.9551C432.921 49.8906 434.782 52.0268 435.059 54.0402C435.663 58.4325 434.184 63.0226 434.488 67.4928C434.617 69.3863 435.272 71.4207 435.39 73.3382L436.89 69.2965C437.296 72.733 436.135 75.9089 435.723 79.2196C435.498 81.0173 435.6 83.1415 435.381 84.8703C434.993 87.9293 433.754 90.7097 433.312 93.595C432.945 95.9829 433.207 98.7153 432.978 101.052C432.792 102.952 429.253 111.602 428.119 113.288C427.41 114.349 426.357 114.984 425.711 116.282C424.737 118.229 424.102 120.869 423.113 122.981C421.333 126.771 418.549 130.07 417.493 134.159C416.029 139.837 416.871 144.631 416.438 150.186C416.318 151.741 415.744 153.457 415.581 155.024C415.476 156.01 415.581 156.999 415.542 157.985C415.527 158.347 415.768 159.099 415.244 159.027C415.07 155.743 415.473 152.253 415.238 148.996C414.962 145.17 413.561 134.899 412.244 131.607C411.143 128.853 408.6 126.6 407.463 123.787C406.844 122.25 406.696 120.153 405.875 118.777C405.235 117.699 403.653 116.764 402.914 115.736C401.071 113.172 401.459 108.42 400.355 105.403C399.919 104.216 398.921 103.407 398.347 102.311C396.939 99.6142 397.583 95.2638 397.195 92.073C396.918 89.7899 396.095 87.6027 395.995 85.3287C395.292 85.1759 395.511 85.4186 395.322 85.7122C393.443 88.6244 392.504 93.3343 391.783 96.708C391.266 96.7649 391.452 95.6713 391.473 95.3507C392.041 86.8148 394.922 80.3671 395.953 72.5472C396.314 69.8178 395.848 67.9332 395.986 65.3865C396.164 62.0758 400.337 52.6171 401.864 49.0757C403.735 44.7433 404.949 45.0908 408.025 42.3314C410.81 39.8356 414.162 35.8328 415.96 32.561C416.261 32.0128 416.411 31.4135 416.444 30.7933L419.755 36.6268C423.627 39.3083 426.108 42.622 429.232 46.0616C429.454 46.3072 429.656 46.6278 429.674 46.9694ZM415.542 125.168C419.974 121.309 420.479 114.679 422.999 109.681C423.72 108.249 424.923 107.015 425.473 105.555C426.694 102.329 426.457 98.7213 426.998 95.3897C427.849 90.1794 430.272 81.7483 429.965 76.7808C429.833 74.6236 429.033 72.2327 428.799 70.1533C428.216 64.988 428.387 59.8137 426.763 54.8042C426.369 53.5908 425.194 53.3751 424.427 52.3384C423.684 51.3347 423.321 49.8127 422.584 48.782C421.222 46.8735 418.907 45.732 418.841 42.7688C416.76 42.9606 416.149 44.3927 414.778 45.4593C413.272 46.6278 410.455 48.2967 409.67 49.9565C408.885 51.6164 408.705 54.0912 407.869 55.9517C407.129 57.6026 405.776 59.1486 405.055 60.9373C402.98 66.0786 403.882 69.2995 403.819 74.3629C403.798 76.1785 403.025 78.4856 402.893 80.3581C402.791 81.8292 402.724 84.6636 402.905 86.0687C402.959 86.4822 403.085 86.9616 403.503 86.5121L405.617 81.2749L408.013 73.6288C407.758 75.037 407.857 76.5291 407.679 77.9343C407.4 80.1214 406.642 82.2697 406.296 84.346C405.166 91.1442 403.75 95.92 405.758 102.694C407.526 108.653 409.55 113.36 412.415 118.831C413.498 120.899 415.139 122.774 415.536 125.162L415.542 125.168Z" fill="#887E69"/>
<path d="M64.9501 47.2689C64.3518 44.6383 62.9867 42.0767 62.8394 39.3412C62.7221 37.175 63.4257 34.3856 63.7594 32.1415C63.8196 31.7401 63.9278 31.1618 64.3518 31.6891C65.0313 34.1969 64.2796 37.0582 64.7878 39.497C65.1907 41.4295 67.4277 44.7342 68.3147 46.7686C69.1265 48.6232 71.4687 53.6447 71.8025 55.2806C72.1362 56.9164 71.3785 60.7065 71.604 62.9656C72.1302 68.2088 75.7052 71.3697 76.0751 76.7867C76.4058 81.6404 75.2572 85.3376 73.6697 89.8138C73.1675 89.8947 73.3419 89.0828 73.36 88.7592C73.4893 86.6379 73.9042 84.4987 73.6697 82.3265C71.583 84.6635 72.0971 88.5824 71.4296 91.6235C70.7621 94.6645 67.8757 103.081 65.7529 105.292C64.6134 106.478 63.6873 107.614 62.683 108.674C62.1508 109.238 61.2729 109.295 60.7587 109.753C59.3155 111.053 59.7905 113.998 59.4628 115.652C58.9577 118.217 57.6497 120.629 58.0346 123.367L56.9131 120.147L56.8349 117.079C55.8818 116.8 55.5029 117.884 55.2444 118.639C54.652 120.368 54.7122 122.223 54.2912 123.979C52.2917 132.281 50.2111 136.152 53.2178 145.101L55.1842 149.733C52.2527 146.195 50.8635 141.377 50.5208 136.853L49.9254 139.247C49.742 136.793 49.1497 134.714 49.3091 132.197C49.9375 122.25 52.4331 121.093 46.4376 111.709C39.6544 101.094 32.9404 92.0309 31.6174 78.839C30.8326 71.0162 34.0348 69.596 35.0541 63.463C35.2736 62.1357 34.7234 60.8174 34.9398 60.0714C35.2946 58.8459 38.4307 56.1524 39.1583 54.6694C40.5444 51.844 40.9623 47.6195 42.3485 44.6653C43.3136 42.604 45.1808 41.1179 46.2722 38.9877C48.0462 35.5301 48.9272 31.5213 50.8305 28.0968C51.3837 28.0219 51.059 28.705 50.9958 29.0106C50.6591 30.6615 50.2231 32.2104 49.8864 33.9003C48.9302 38.6761 47.6734 42.7058 46.0197 47.2719C52.3068 42.2744 56.3478 34.6553 55.6322 26.4549C55.4488 24.3366 54.4656 22.1645 54.4386 20.0103L56.1524 24.7381C57.9715 29.5259 56.7207 34.0321 56.5282 38.721C56.3569 42.8197 58.4135 42.3613 61.1496 44.3267C62.4275 45.2466 63.3505 46.7087 64.9561 47.2719L64.9501 47.2689ZM64.3548 78.7282C64.7396 75.6961 64.6555 72.655 64.6555 69.596C64.6494 61.9829 63.5159 59.1096 59.6973 52.659C58.8404 51.2088 57.782 49.8846 57.1476 48.3086C53.9515 45.5162 50.3704 48.6621 48.4702 51.3706C47.2705 53.0814 47.0089 55.0678 46.0708 56.7696C45.2319 58.2947 43.5331 59.6849 42.7393 61.2398C42.0568 62.5701 40.9323 66.0846 40.6767 67.5736C39.8078 72.6341 41.2299 84.262 42.1891 89.5801C43.4188 96.3843 46.9999 101.37 51.2664 106.601L53.6658 108.989C55.4578 106.799 58.3353 105.184 59.7845 102.799C62.1929 98.8321 65.8581 89.3195 66.67 84.7923C67.5419 79.9386 68.2335 74.6565 68.2545 69.7458L66.5407 72.0798L64.3518 78.7342L64.3548 78.7282ZM65.8521 55.9577C66.0085 52.6709 63.8797 49.2134 60.443 48.77L65.8521 55.9577ZM37.2881 87.1173C37.9646 84.1931 37.1528 80.9962 36.5905 78.081C36.5154 77.6915 36.5545 76.6309 36.0914 76.6369C35.2646 78.9888 35.5021 81.0951 35.9832 83.48L37.2881 87.1203V87.1173Z" fill="#887E69"/>
<path d="M111.557 116.479L109.272 112.015C106.196 109.45 101.789 106.88 98.0271 109.594C97.7746 109.96 100.03 112.237 100.381 112.782C104.245 118.798 101.984 126.115 106.744 131.61C106.81 131.81 106.458 131.825 106.299 131.756C106.061 131.652 104.032 129.569 103.746 129.204C100.222 124.707 101.768 118.385 96.8275 114.226C93.0269 111.026 87.1458 110.562 82.8852 113.225C81.478 114.106 81.884 114.825 81.3157 115.856C80.8226 116.752 79.5688 117.543 78.9193 118.861C78.1225 120.482 77.9752 122.313 77.2716 123.964C76.7063 124.026 77.0281 123.337 77.0611 123.008C77.3528 120.09 78.2668 117.21 77.876 114.223C77.8309 113.873 78.0023 113.627 77.437 113.789C75.1669 114.442 72.1301 119.448 70.7169 121.474C67.3043 126.366 63.6781 131.601 62.2379 137.446C61.7358 137.527 61.9162 136.724 61.9282 136.388C62.1718 128.635 68.7746 117.297 71.9016 109.771C73.2005 106.643 74.6257 104.129 76.126 101.097C79.6229 94.0383 82.1305 86.3922 85.5732 79.3513C87.8463 74.7014 92.5398 69.7068 95.1707 64.6464C97.5972 59.9814 99.1787 54.897 101.332 50.1092C101.473 49.3302 99.299 49.6298 98.8059 49.6928C96.6771 49.9654 93.4088 51.6732 91.5296 51.7481C90.6035 51.7841 89.3918 50.7444 88.2252 50.5856C86.3129 50.3249 84.0819 50.7414 82.0944 50.3939C81.0541 51.82 80.1671 53.4169 79.9867 55.2056C79.6259 58.8129 79.7642 60.4608 80.7264 63.7506C80.8677 64.2329 81.7817 67.0013 80.585 66.7407C80.7925 64.5895 78.9524 63.4659 78.2398 61.7312C76.5259 57.5546 77.0551 54.3158 76.6372 50.1452C76.0659 44.4615 72.0309 38.2536 76.8266 32.8815C77.001 37.948 80.0228 41.2527 84.9809 42.1306C86.8812 42.4691 88.8506 42.2684 90.6546 42.4691C95.9525 43.0624 100.153 44.4705 105.303 42.0796C107.808 40.9171 109.928 38.688 111.191 36.2612L112.453 29.5858C115.108 36.9563 109.648 43.305 109.453 50.5556C111.579 50.0823 112.568 47.952 114.113 46.6637C114.336 46.6158 114.315 46.9693 114.258 47.1071C113.656 48.5572 111.118 50.8642 110.06 52.2125C108.031 54.8041 103.385 60.2391 102.113 62.8697C101.323 64.5056 101.154 66.4141 100.427 68.0799L101.629 68.3796L90.5133 84.5706C90.1465 85.829 93.078 83.495 93.3727 83.2223C94.0763 82.5722 94.1785 82.1767 94.6476 81.5085C94.828 81.2539 94.8159 80.6427 95.3151 81.2629C94.1244 83.5908 92.7984 85.8469 91.0996 87.8483C89.5932 89.619 86.7338 91.6294 85.7506 93.6039C85.0711 94.9641 84.9719 96.5131 84.4216 97.9722C83.9346 99.2575 82.9995 100.363 82.5364 101.487C81.7607 103.371 81.6885 105.537 80.582 107.329L90.7929 103.123C95.0445 103.215 99.0915 101.84 102.736 99.7429C110.598 95.2158 108.455 90.458 107.934 82.7729C107.913 82.4523 107.727 81.3587 108.244 81.4157C109.705 86.0896 111.425 90.5658 109.504 95.3985C108.987 96.6989 107.396 98.4756 107.171 99.3894C106.906 100.462 107.796 101.196 107.655 102.218C107.54 103.042 106.365 103.419 106.467 103.991C106.518 104.276 109.63 107.521 110.177 108.402C110.448 108.839 111.557 110.921 111.557 111.221V116.464V116.479Z" fill="#887E69"/>
<path d="M302.485 36.7826C306.899 37.0942 310.111 37.5256 314.32 35.8418C324.062 31.9498 325.298 26.9613 330.096 18.9047C330.46 18.2965 330.977 17.0681 331.654 16.8614C330.057 20.5616 328.996 25.0348 327.195 28.5972C325.692 31.5693 322.823 34.8411 320.83 37.5346C323.295 37.8911 325.655 36.0635 327.294 34.3887C327.52 34.3407 327.49 34.6793 327.438 34.8321C326.681 37.1661 322.477 40.6745 321.263 43.0624C320.273 45.0039 320.397 47.5087 319.552 49.7468C318.887 51.5115 317.612 52.9436 317.068 54.7623C316.368 55.4035 316.659 54.9121 316.728 54.4267C317.104 51.8291 318.325 49.1565 316.749 46.6847C314.969 43.8924 309.344 43.2901 306.521 44.5545C302.94 46.1604 303.965 52.4972 303.986 55.6581L306.015 51.5355L306.379 51.5984C304.765 57.5397 302.576 63.7027 302.182 69.8927C302.043 72.0619 302.446 74.4048 302.365 76.4302C302.278 78.6294 301.58 81.1731 301.553 83.3692C301.514 86.6859 302.458 90.0895 302.176 93.8556C301.8 98.8142 299.229 104.171 299.16 109.154C299.094 113.972 301.253 118.885 300.97 123.817C300.733 127.996 298.901 131.208 298.048 134.986C297.194 138.764 298.986 143.214 299.181 147.178C299.413 151.819 297.924 155.381 297.651 159.758C297.245 166.296 300.044 172.531 299.019 179.101C299.121 174.298 297.097 169.834 296.298 165.331C295.26 159.498 297.708 155.546 297.359 150.189C297.031 145.119 293.907 141.874 294.397 136.143C294.942 129.785 296.322 124.964 295.877 118.112C295.705 115.461 294.665 113.016 294.391 110.604C293.781 105.232 296.505 99.3206 296.49 93.8586C296.481 90.8535 295.242 87.4709 295.26 84.4239C294.692 83.7288 291.742 88.19 291.499 88.6124C290.591 90.1734 289.929 91.8902 289.244 93.556L287.443 99.5513C287.157 94.2511 289.205 89.2925 291.397 84.6156C292.702 81.8292 295.218 78.5754 295.525 75.5464C295.69 73.9105 295.263 72.7899 295.251 71.3997C295.2 66.0846 295.552 60.4579 295.275 55.1967C295.2 53.7826 294.644 52.5212 294.644 51.0141C294.644 49.2344 295.269 47.236 295.567 45.4743C292.825 44.6354 290.855 43.9523 287.981 44.6534C287.467 44.7792 286.697 45.3844 286.393 45.3665C285.927 45.3395 283.934 43.6137 281.58 43.5418C275.223 43.3411 267.809 52.5691 264.36 57.3749C264.264 57.5097 263.879 58.3187 263.687 57.9022C264.667 55.3495 266.369 52.7249 267.953 50.4688C270.142 47.3529 272.851 43.8295 276.041 41.7501C278.892 39.8896 282.106 38.7091 285.335 37.6754C282.984 35.4104 280.326 33.6606 278.477 30.8832C276.576 28.0309 275.924 24.4386 274.153 21.4095C272.953 19.3542 271.257 17.8741 269.7 16.1124C270.539 16.397 271.573 17.3228 272.247 17.916C276.57 21.7121 278.474 28.1118 282.346 30.9222C283.345 31.6472 289.232 34.6703 290.446 35.1347C291.661 35.5991 298.02 36.7706 298.983 36.5009C300.552 32.2465 300.507 27.6564 301.722 23.3C302.967 18.8298 305.372 14.6562 306.827 10.4107C307.426 8.667 307.633 6.80941 308.036 5.02073C308.111 4.69116 308.039 4.05298 308.484 4.12788C308.213 7.10303 308.207 9.73662 307.215 12.5979C305.916 16.352 304.392 19.3781 303.751 23.5278C303.072 27.9261 303.652 32.4262 302.47 36.7826H302.485Z" fill="#887E69"/>
<path d="M89.6113 40.0783C89.9571 38.1907 91.6619 37.181 92.579 35.3984C93.2014 34.1849 93.6103 32.7078 93.9711 31.3925C97.2124 30.284 100.592 28.8369 102.832 26.1403C103.719 25.0737 104.227 23.6356 105.24 22.7008C104.705 25.1426 103.325 28.4683 101.635 30.3409C100.562 31.5304 96.587 35.6021 95.4715 36.483C93.8268 37.7863 91.1057 38.2866 89.6113 40.0783Z" fill="#887E69"/>
</svg>
